<svg width="22" height="13" viewBox="0 0 22 13" fill="none" xmlns="http://www.w3.org/2000/svg">
<path d="M12.0475 12.563C12.0475 12.563 12.4325 12.521 12.6297 12.313C12.8102 12.1225 12.804 11.763 12.804 11.763C12.804 11.763 12.7799 10.0843 13.574 9.83645C14.3566 9.59265 15.3616 11.4597 16.428 12.1777C17.2336 12.7205 17.8451 12.6016 17.8451 12.6016L20.6949 12.5626C20.6949 12.5626 22.185 12.4724 21.4785 11.3222C21.42 11.228 21.0663 10.4711 19.3601 8.91643C17.5726 7.28904 17.8126 7.55225 19.9641 4.73659C21.2747 3.02199 21.7985 1.97522 21.6347 1.52765C21.4792 1.09954 20.515 1.21327 20.515 1.21327L17.3073 1.23288C17.3073 1.23288 17.0694 1.20114 16.893 1.3046C16.7209 1.406 16.6092 1.6426 16.6092 1.6426C16.6092 1.6426 16.1021 2.96898 15.4249 4.0977C13.9965 6.47803 13.4257 6.60404 13.192 6.45656C12.6483 6.11143 12.7839 5.07185 12.7839 4.33339C12.7838 2.02584 13.1406 1.06409 12.0898 0.815253C11.7413 0.732308 11.4846 0.678037 10.5924 0.668862C9.44773 0.65765 8.47937 0.673059 7.9305 0.936308C7.56529 1.11147 7.28356 1.50273 7.45574 1.52525C7.66757 1.5529 8.14757 1.65222 8.4022 1.99225C8.73091 2.43162 8.71947 3.41691 8.71947 3.41691C8.71947 3.41691 8.90844 6.13312 8.27818 6.47011C7.84618 6.70161 7.25347 6.22947 5.97929 4.06947C5.32707 2.96335 4.8345 1.74046 4.8345 1.74046C4.8345 1.74046 4.73954 1.51207 4.56944 1.38917C4.36387 1.24067 4.07691 1.19459 4.07691 1.19459L1.02888 1.2142C1.02888 1.2142 0.570793 1.22651 0.402798 1.42214C0.253585 1.59524 0.391338 1.95474 0.391338 1.95474C0.391338 1.95474 2.77799 7.43518 5.48072 10.1974C7.95909 12.7291 10.7723 12.563 10.7723 12.563L12.0475 12.563Z" fill="#F8CD3E"/>
</svg>
